<svg xmlns="http://www.w3.org/2000/svg" viewBox="0 0 400 300"><rect width="400" height="300" fill="#E8DCC4"/><g transform="translate(7 138) rotate(16)" opacity="0.47"><ellipse rx="33.5" ry="14.8" fill="#3F5A3C"/><line x1="-33.5" y1="0" x2="33.5" y2="0" stroke="#E8DCC4" stroke-width="1.2"/></g><g transform="translate(101 149) rotate(72)" opacity="0.41"><ellipse rx="46.0" ry="18.5" fill="#8B6A4A"/><line x1="-46.0" y1="0" x2="46.0" y2="0" stroke="#E8DCC4" stroke-width="1.2"/></g><g transform="translate(235 257) rotate(205)" opacity="0.70"><ellipse rx="50.6" ry="18.3" fill="#8B6A4A"/><line x1="-50.6" y1="0" x2="50.6" y2="0" stroke="#E8DCC4" stroke-width="1.2"/></g><g transform="translate(143 263) rotate(174)" opacity="0.68"><ellipse rx="24.7" ry="9.4" fill="#3F5A3C"/><line x1="-24.7" y1="0" x2="24.7" y2="0" stroke="#E8DCC4" stroke-width="1.2"/></g><g transform="translate(358 266) rotate(100)" opacity="0.47"><ellipse rx="47.6" ry="15.9" fill="#8B6A4A"/><line x1="-47.6" y1="0" x2="47.6" y2="0" stroke="#E8DCC4" stroke-width="1.2"/></g><g transform="translate(214 66) rotate(103)" opacity="0.61"><ellipse rx="28.6" ry="8.3" fill="#8B6A4A"/><line x1="-28.6" y1="0" x2="28.6" y2="0" stroke="#E8DCC4" stroke-width="1.2"/></g><g transform="translate(245 63) rotate(303)" opacity="0.45"><ellipse rx="47.1" ry="14.2" fill="#3F5A3C"/><line x1="-47.1" y1="0" x2="47.1" y2="0" stroke="#E8DCC4" stroke-width="1.2"/></g><g transform="translate(183 57) rotate(99)" opacity="0.50"><ellipse rx="46.3" ry="20.0" fill="#8B6A4A"/><line x1="-46.3" y1="0" x2="46.3" y2="0" stroke="#E8DCC4" stroke-width="1.2"/></g><g transform="translate(161 149) rotate(332)" opacity="0.50"><ellipse rx="37.7" ry="14.4" fill="#8B6A4A"/><line x1="-37.7" y1="0" x2="37.7" y2="0" stroke="#E8DCC4" stroke-width="1.2"/></g><g transform="translate(314 138) rotate(41)" opacity="0.58"><ellipse rx="32.6" ry="12.7" fill="#3F5A3C"/><line x1="-32.6" y1="0" x2="32.6" y2="0" stroke="#E8DCC4" stroke-width="1.2"/></g><g transform="translate(373 124) rotate(67)" opacity="0.49"><ellipse rx="42.3" ry="14.1" fill="#8B6A4A"/><line x1="-42.3" y1="0" x2="42.3" y2="0" stroke="#E8DCC4" stroke-width="1.2"/></g><g transform="translate(74 208) rotate(170)" opacity="0.74"><ellipse rx="44.0" ry="20.2" fill="#8B6A4A"/><line x1="-44.0" y1="0" x2="44.0" y2="0" stroke="#E8DCC4" stroke-width="1.2"/></g><g transform="translate(349 188) rotate(110)" opacity="0.69"><ellipse rx="49.3" ry="13.9" fill="#3F5A3C"/><line x1="-49.3" y1="0" x2="49.3" y2="0" stroke="#E8DCC4" stroke-width="1.2"/></g><g transform="translate(131 166) rotate(6)" opacity="0.45"><ellipse rx="35.4" ry="14.2" fill="#8B6A4A"/><line x1="-35.4" y1="0" x2="35.4" y2="0" stroke="#E8DCC4" stroke-width="1.2"/></g><g transform="translate(354 241) rotate(339)" opacity="0.56"><ellipse rx="47.5" ry="16.2" fill="#8B6A4A"/><line x1="-47.5" y1="0" x2="47.5" y2="0" stroke="#E8DCC4" stroke-width="1.2"/></g><g transform="translate(351 213) rotate(148)" opacity="0.36"><ellipse rx="29.2" ry="9.9" fill="#3F5A3C"/><line x1="-29.2" y1="0" x2="29.2" y2="0" stroke="#E8DCC4" stroke-width="1.2"/></g><g transform="translate(255 183) rotate(275)" opacity="0.37"><ellipse rx="25.6" ry="11.7" fill="#8B6A4A"/><line x1="-25.6" y1="0" x2="25.6" y2="0" stroke="#E8DCC4" stroke-width="1.2"/></g><g transform="translate(201 250) rotate(117)" opacity="0.74"><ellipse rx="48.2" ry="18.7" fill="#8B6A4A"/><line x1="-48.2" y1="0" x2="48.2" y2="0" stroke="#E8DCC4" stroke-width="1.2"/></g><g transform="translate(320 214) rotate(157)" opacity="0.39"><ellipse rx="40.2" ry="15.3" fill="#3F5A3C"/><line x1="-40.2" y1="0" x2="40.2" y2="0" stroke="#E8DCC4" stroke-width="1.2"/></g><g transform="translate(346 175) rotate(153)" opacity="0.67"><ellipse rx="47.0" ry="14.7" fill="#8B6A4A"/><line x1="-47.0" y1="0" x2="47.0" y2="0" stroke="#E8DCC4" stroke-width="1.2"/></g><g transform="translate(14 233) rotate(226)" opacity="0.49"><ellipse rx="46.0" ry="19.4" fill="#8B6A4A"/><line x1="-46.0" y1="0" x2="46.0" y2="0" stroke="#E8DCC4" stroke-width="1.2"/></g><g transform="translate(255 189) rotate(135)" opacity="0.40"><ellipse rx="48.4" ry="19.8" fill="#3F5A3C"/><line x1="-48.4" y1="0" x2="48.4" y2="0" stroke="#E8DCC4" stroke-width="1.2"/></g></svg>