<svg xmlns="http://www.w3.org/2000/svg" viewBox="0 0 400 300"><rect width="400" height="300" fill="#E7DCC6"/><g transform="translate(60 113) rotate(316)" opacity="0.42"><ellipse rx="38.3" ry="11.5" fill="#C9A24B"/><line x1="-38.3" y1="0" x2="38.3" y2="0" stroke="#E7DCC6" stroke-width="1.2"/></g><g transform="translate(373 260) rotate(103)" opacity="0.61"><ellipse rx="37.3" ry="10.9" fill="#3F5A3C"/><line x1="-37.3" y1="0" x2="37.3" y2="0" stroke="#E7DCC6" stroke-width="1.2"/></g><g transform="translate(370 39) rotate(246)" opacity="0.67"><ellipse rx="32.3" ry="11.7" fill="#3F5A3C"/><line x1="-32.3" y1="0" x2="32.3" y2="0" stroke="#E7DCC6" stroke-width="1.2"/></g><g transform="translate(186 147) rotate(146)" opacity="0.72"><ellipse rx="34.4" ry="13.5" fill="#C9A24B"/><line x1="-34.4" y1="0" x2="34.4" y2="0" stroke="#E7DCC6" stroke-width="1.2"/></g><g transform="translate(354 87) rotate(283)" opacity="0.51"><ellipse rx="21.1" ry="9.3" fill="#3F5A3C"/><line x1="-21.1" y1="0" x2="21.1" y2="0" stroke="#E7DCC6" stroke-width="1.2"/></g><g transform="translate(208 257) rotate(56)" opacity="0.55"><ellipse rx="37.8" ry="14.6" fill="#3F5A3C"/><line x1="-37.8" y1="0" x2="37.8" y2="0" stroke="#E7DCC6" stroke-width="1.2"/></g><g transform="translate(279 157) rotate(306)" opacity="0.59"><ellipse rx="27.7" ry="8.1" fill="#C9A24B"/><line x1="-27.7" y1="0" x2="27.7" y2="0" stroke="#E7DCC6" stroke-width="1.2"/></g><g transform="translate(303 188) rotate(73)" opacity="0.37"><ellipse rx="36.1" ry="14.2" fill="#3F5A3C"/><line x1="-36.1" y1="0" x2="36.1" y2="0" stroke="#E7DCC6" stroke-width="1.2"/></g><g transform="translate(12 150) rotate(196)" opacity="0.40"><ellipse rx="40.5" ry="16.0" fill="#3F5A3C"/><line x1="-40.5" y1="0" x2="40.5" y2="0" stroke="#E7DCC6" stroke-width="1.2"/></g><g transform="translate(339 142) rotate(76)" opacity="0.43"><ellipse rx="18.1" ry="6.4" fill="#C9A24B"/><line x1="-18.1" y1="0" x2="18.1" y2="0" stroke="#E7DCC6" stroke-width="1.2"/></g><g transform="translate(218 265) rotate(193)" opacity="0.59"><ellipse rx="48.3" ry="16.1" fill="#3F5A3C"/><line x1="-48.3" y1="0" x2="48.3" y2="0" stroke="#E7DCC6" stroke-width="1.2"/></g><g transform="translate(182 18) rotate(307)" opacity="0.62"><ellipse rx="40.3" ry="15.7" fill="#3F5A3C"/><line x1="-40.3" y1="0" x2="40.3" y2="0" stroke="#E7DCC6" stroke-width="1.2"/></g><g transform="translate(365 102) rotate(177)" opacity="0.64"><ellipse rx="39.7" ry="16.0" fill="#C9A24B"/><line x1="-39.7" y1="0" x2="39.7" y2="0" stroke="#E7DCC6" stroke-width="1.2"/></g><g transform="translate(100 17) rotate(283)" opacity="0.39"><ellipse rx="23.6" ry="10.3" fill="#3F5A3C"/><line x1="-23.6" y1="0" x2="23.6" y2="0" stroke="#E7DCC6" stroke-width="1.2"/></g><g transform="translate(319 161) rotate(27)" opacity="0.40"><ellipse rx="37.4" ry="13.7" fill="#3F5A3C"/><line x1="-37.4" y1="0" x2="37.4" y2="0" stroke="#E7DCC6" stroke-width="1.2"/></g><g transform="translate(358 37) rotate(247)" opacity="0.41"><ellipse rx="24.4" ry="10.7" fill="#C9A24B"/><line x1="-24.4" y1="0" x2="24.4" y2="0" stroke="#E7DCC6" stroke-width="1.2"/></g><g transform="translate(348 43) rotate(344)" opacity="0.55"><ellipse rx="30.0" ry="10.3" fill="#3F5A3C"/><line x1="-30.0" y1="0" x2="30.0" y2="0" stroke="#E7DCC6" stroke-width="1.2"/></g><g transform="translate(23 280) rotate(77)" opacity="0.55"><ellipse rx="31.6" ry="10.4" fill="#3F5A3C"/><line x1="-31.6" y1="0" x2="31.6" y2="0" stroke="#E7DCC6" stroke-width="1.2"/></g><g transform="translate(317 247) rotate(287)" opacity="0.55"><ellipse rx="40.3" ry="18.4" fill="#C9A24B"/><line x1="-40.3" y1="0" x2="40.3" y2="0" stroke="#E7DCC6" stroke-width="1.2"/></g><g transform="translate(163 45) rotate(14)" opacity="0.68"><ellipse rx="33.7" ry="14.1" fill="#3F5A3C"/><line x1="-33.7" y1="0" x2="33.7" y2="0" stroke="#E7DCC6" stroke-width="1.2"/></g><g transform="translate(94 73) rotate(97)" opacity="0.67"><ellipse rx="22.9" ry="10.5" fill="#3F5A3C"/><line x1="-22.9" y1="0" x2="22.9" y2="0" stroke="#E7DCC6" stroke-width="1.2"/></g><g transform="translate(243 132) rotate(297)" opacity="0.66"><ellipse rx="19.4" ry="8.9" fill="#C9A24B"/><line x1="-19.4" y1="0" x2="19.4" y2="0" stroke="#E7DCC6" stroke-width="1.2"/></g></svg>